<mxfile host="Electron" agent="Mozilla/5.0 (X11; Linux x86_64) AppleWebKit/537.36 (KHTML, like Gecko) draw.io/26.2.15 Chrome/134.0.6998.205 Electron/35.4.0 Safari/537.36" version="26.2.15">
  <diagram id="C5RBs43oDa-KdzZeNtuy" name="Page-1">
    <mxGraphModel dx="701" dy="889" grid="1" gridSize="10" guides="1" tooltips="1" connect="1" arrows="1" fold="1" page="1" pageScale="1" pageWidth="827" pageHeight="1169" math="0" shadow="0">
      <root>
        <mxCell id="WIyWlLk6GJQsqaUBKTNV-0" />
        <mxCell id="WIyWlLk6GJQsqaUBKTNV-1" parent="WIyWlLk6GJQsqaUBKTNV-0" />
        <mxCell id="L62SZfcYrU-CM2bbXczC-2" value="Config" style="swimlane;fontStyle=1;align=center;verticalAlign=top;childLayout=stackLayout;horizontal=1;startSize=26;horizontalStack=0;resizeParent=1;resizeParentMax=0;resizeLast=0;collapsible=1;marginBottom=0;whiteSpace=wrap;html=1;" parent="WIyWlLk6GJQsqaUBKTNV-1" vertex="1">
          <mxGeometry x="100" y="20" width="270" height="260" as="geometry" />
        </mxCell>
        <mxCell id="L62SZfcYrU-CM2bbXczC-3" value="&lt;div&gt;&lt;div&gt;- baudrate: Bps&lt;/div&gt;&lt;div&gt;- wordlength: WordLength&lt;/div&gt;&lt;div&gt;- parity: Parity&lt;/div&gt;&lt;div&gt;- stopbits: StopBits&lt;/div&gt;&lt;/div&gt;&lt;div&gt;&lt;br&gt;&lt;/div&gt;" style="text;strokeColor=none;fillColor=none;align=left;verticalAlign=top;spacingLeft=4;spacingRight=4;overflow=hidden;rotatable=0;points=[[0,0.5],[1,0.5]];portConstraint=eastwest;whiteSpace=wrap;html=1;" parent="L62SZfcYrU-CM2bbXczC-2" vertex="1">
          <mxGeometry y="26" width="270" height="64" as="geometry" />
        </mxCell>
        <mxCell id="L62SZfcYrU-CM2bbXczC-4" value="" style="line;strokeWidth=1;fillColor=none;align=left;verticalAlign=middle;spacingTop=-1;spacingLeft=3;spacingRight=3;rotatable=0;labelPosition=right;points=[];portConstraint=eastwest;strokeColor=inherit;" parent="L62SZfcYrU-CM2bbXczC-2" vertex="1">
          <mxGeometry y="90" width="270" height="8" as="geometry" />
        </mxCell>
        <mxCell id="L62SZfcYrU-CM2bbXczC-5" value="&lt;div&gt;&lt;div&gt;+ baudrate(baudrate: Bps): Self&lt;/div&gt;&lt;div&gt;+ wordlength(wordlength: WordLength): Self&lt;/div&gt;&lt;div&gt;+ wordlength_8bits(): Self&lt;/div&gt;&lt;div&gt;&lt;div&gt;+ wordlength_9bits(): Self&lt;/div&gt;&lt;/div&gt;&lt;div&gt;&lt;div&gt;+ wordlength_7bits(): Self&lt;/div&gt;&lt;/div&gt;&lt;div&gt;+ parity(parity: Parity): Self&lt;/div&gt;&lt;div&gt;+ parity_none(): Self&lt;/div&gt;&lt;div&gt;&lt;div&gt;+ parity_even(): Self&lt;/div&gt;&lt;/div&gt;&lt;div&gt;&lt;div&gt;+ parity_odd(): Self&lt;/div&gt;&lt;/div&gt;&lt;div&gt;+ stopbits(stopbits: StopBits): Self&lt;/div&gt;&lt;/div&gt;&lt;div&gt;&lt;br&gt;&lt;/div&gt;" style="text;strokeColor=none;fillColor=none;align=left;verticalAlign=top;spacingLeft=4;spacingRight=4;overflow=hidden;rotatable=0;points=[[0,0.5],[1,0.5]];portConstraint=eastwest;whiteSpace=wrap;html=1;" parent="L62SZfcYrU-CM2bbXczC-2" vertex="1">
          <mxGeometry y="98" width="270" height="162" as="geometry" />
        </mxCell>
        <mxCell id="L62SZfcYrU-CM2bbXczC-7" value="«interface»&lt;br&gt;&lt;b&gt;Instance&lt;/b&gt;" style="html=1;whiteSpace=wrap;" parent="WIyWlLk6GJQsqaUBKTNV-1" vertex="1">
          <mxGeometry x="450" y="85" width="165" height="50" as="geometry" />
        </mxCell>
        <mxCell id="L62SZfcYrU-CM2bbXczC-8" value="+ ptr(): *const RegisterBlock&lt;div&gt;+ enable()&lt;/div&gt;" style="html=1;whiteSpace=wrap;align=left;" parent="WIyWlLk6GJQsqaUBKTNV-1" vertex="1">
          <mxGeometry x="450" y="135" width="165" height="35" as="geometry" />
        </mxCell>
        <mxCell id="L62SZfcYrU-CM2bbXczC-20" value="USART0" style="html=1;whiteSpace=wrap;" parent="WIyWlLk6GJQsqaUBKTNV-1" vertex="1">
          <mxGeometry x="410" y="210" width="110" height="50" as="geometry" />
        </mxCell>
        <mxCell id="L62SZfcYrU-CM2bbXczC-21" value="" style="endArrow=block;dashed=1;endFill=0;endSize=12;html=1;rounded=0;exitX=0.5;exitY=0;exitDx=0;exitDy=0;entryX=0.25;entryY=1;entryDx=0;entryDy=0;" parent="WIyWlLk6GJQsqaUBKTNV-1" source="L62SZfcYrU-CM2bbXczC-20" target="L62SZfcYrU-CM2bbXczC-8" edge="1">
          <mxGeometry width="160" relative="1" as="geometry">
            <mxPoint x="360" y="105" as="sourcePoint" />
            <mxPoint x="520" y="105" as="targetPoint" />
          </mxGeometry>
        </mxCell>
        <mxCell id="DpRpAsg6g2zffk_E9SH7-0" value="USART1" style="html=1;whiteSpace=wrap;" vertex="1" parent="WIyWlLk6GJQsqaUBKTNV-1">
          <mxGeometry x="550" y="210" width="110" height="50" as="geometry" />
        </mxCell>
        <mxCell id="DpRpAsg6g2zffk_E9SH7-2" value="" style="endArrow=block;dashed=1;endFill=0;endSize=12;html=1;rounded=0;exitX=0.5;exitY=0;exitDx=0;exitDy=0;entryX=0.75;entryY=1;entryDx=0;entryDy=0;" edge="1" parent="WIyWlLk6GJQsqaUBKTNV-1" source="DpRpAsg6g2zffk_E9SH7-0" target="L62SZfcYrU-CM2bbXczC-8">
          <mxGeometry width="160" relative="1" as="geometry">
            <mxPoint x="475" y="220" as="sourcePoint" />
            <mxPoint x="501" y="180" as="targetPoint" />
          </mxGeometry>
        </mxCell>
        <mxCell id="DpRpAsg6g2zffk_E9SH7-3" value="Serial" style="swimlane;fontStyle=1;align=center;verticalAlign=top;childLayout=stackLayout;horizontal=1;startSize=26;horizontalStack=0;resizeParent=1;resizeParentMax=0;resizeLast=0;collapsible=1;marginBottom=0;whiteSpace=wrap;html=1;" vertex="1" parent="WIyWlLk6GJQsqaUBKTNV-1">
          <mxGeometry x="100" y="320" width="600" height="230" as="geometry" />
        </mxCell>
        <mxCell id="DpRpAsg6g2zffk_E9SH7-4" value="&lt;div&gt;&lt;div&gt;+ tx: Tx&amp;lt;USART&amp;gt;&lt;/div&gt;&lt;/div&gt;&lt;div&gt;+ rx: Rx&amp;lt;USART&amp;gt;&lt;/div&gt;&lt;div&gt;+ token: ReleaseToken&amp;lt;USART, (Option&amp;lt;USART::TxPin&amp;gt;, Option&amp;lt;USART::RxPin&amp;gt;)&amp;gt;&lt;/div&gt;" style="text;strokeColor=none;fillColor=none;align=left;verticalAlign=top;spacingLeft=4;spacingRight=4;overflow=hidden;rotatable=0;points=[[0,0.5],[1,0.5]];portConstraint=eastwest;whiteSpace=wrap;html=1;" vertex="1" parent="DpRpAsg6g2zffk_E9SH7-3">
          <mxGeometry y="26" width="600" height="64" as="geometry" />
        </mxCell>
        <mxCell id="DpRpAsg6g2zffk_E9SH7-5" value="" style="line;strokeWidth=1;fillColor=none;align=left;verticalAlign=middle;spacingTop=-1;spacingLeft=3;spacingRight=3;rotatable=0;labelPosition=right;points=[];portConstraint=eastwest;strokeColor=inherit;" vertex="1" parent="DpRpAsg6g2zffk_E9SH7-3">
          <mxGeometry y="90" width="600" height="8" as="geometry" />
        </mxCell>
        <mxCell id="DpRpAsg6g2zffk_E9SH7-6" value="&lt;div&gt;+ new&lt;span style=&quot;background-color: transparent;&quot;&gt;(&lt;/span&gt;&lt;span style=&quot;background-color: transparent; color: light-dark(rgb(0, 0, 0), rgb(255, 255, 255));&quot;&gt;usart: USART,&lt;/span&gt;&lt;span style=&quot;background-color: transparent; color: light-dark(rgb(0, 0, 0), rgb(255, 255, 255));&quot;&gt;&amp;nbsp;pins: (USART::TxPin, USART::RxPin),&amp;nbsp;&lt;/span&gt;&lt;span style=&quot;background-color: transparent; color: light-dark(rgb(0, 0, 0), rgb(255, 255, 255));&quot;&gt;config: impl Into&amp;lt;Config&amp;gt;,&amp;nbsp;&lt;/span&gt;&lt;span style=&quot;background-color: transparent; color: light-dark(rgb(0, 0, 0), rgb(255, 255, 255));&quot;&gt;clocks: &amp;amp;Clocks&lt;/span&gt;&lt;span style=&quot;background-color: transparent; color: light-dark(rgb(0, 0, 0), rgb(255, 255, 255));&quot;&gt;): Self&lt;/span&gt;&lt;/div&gt;&lt;div&gt;&lt;div&gt;+ tx(&lt;span style=&quot;background-color: transparent; color: light-dark(rgb(0, 0, 0), rgb(255, 255, 255));&quot;&gt;usart: USART,&amp;nbsp;&lt;/span&gt;&lt;span style=&quot;background-color: transparent; color: light-dark(rgb(0, 0, 0), rgb(255, 255, 255));&quot;&gt;tx_pin: USART::TxPin,&amp;nbsp;&lt;/span&gt;&lt;span style=&quot;background-color: transparent; color: light-dark(rgb(0, 0, 0), rgb(255, 255, 255));&quot;&gt;config: impl Into&amp;lt;Config&amp;gt;,&amp;nbsp;&lt;/span&gt;&lt;span style=&quot;background-color: transparent; color: light-dark(rgb(0, 0, 0), rgb(255, 255, 255));&quot;&gt;clocks: &amp;amp;Clocks&lt;/span&gt;&lt;span style=&quot;background-color: transparent; color: light-dark(rgb(0, 0, 0), rgb(255, 255, 255));&quot;&gt;): Tx&amp;lt;USART&amp;gt;&lt;/span&gt;&lt;/div&gt;&lt;/div&gt;&lt;div&gt;&lt;span style=&quot;background-color: transparent; color: light-dark(rgb(0, 0, 0), rgb(255, 255, 255));&quot;&gt;+&amp;nbsp;&lt;/span&gt;&lt;span style=&quot;background-color: transparent;&quot;&gt;rx(&lt;/span&gt;&lt;span style=&quot;background-color: transparent; color: light-dark(rgb(0, 0, 0), rgb(255, 255, 255));&quot;&gt;usart: USART,&amp;nbsp;&lt;/span&gt;&lt;span style=&quot;background-color: transparent; color: light-dark(rgb(0, 0, 0), rgb(255, 255, 255));&quot;&gt;rx_pin: USART::RxPin,&amp;nbsp;&lt;/span&gt;&lt;span style=&quot;background-color: transparent; color: light-dark(rgb(0, 0, 0), rgb(255, 255, 255));&quot;&gt;config: impl Into&amp;lt;Config&amp;gt;,&amp;nbsp;&lt;/span&gt;&lt;span style=&quot;background-color: transparent; color: light-dark(rgb(0, 0, 0), rgb(255, 255, 255));&quot;&gt;clocks: &amp;amp;Clocks&lt;/span&gt;&lt;span style=&quot;background-color: transparent; color: light-dark(rgb(0, 0, 0), rgb(255, 255, 255));&quot;&gt;): Rx&amp;lt;USART&amp;gt;&lt;/span&gt;&lt;/div&gt;&lt;div&gt;&lt;span style=&quot;background-color: transparent; color: light-dark(rgb(0, 0, 0), rgb(255, 255, 255));&quot;&gt;+&amp;nbsp;&lt;/span&gt;&lt;span style=&quot;background-color: transparent;&quot;&gt;release(): (USART, (Option&amp;lt;USART::TxPin&amp;gt;, Option&amp;lt;USART::RxPin&amp;gt;))&lt;/span&gt;&lt;/div&gt;&lt;div&gt;&lt;span style=&quot;background-color: transparent;&quot;&gt;+&amp;nbsp;&lt;/span&gt;&lt;span style=&quot;background-color: transparent;&quot;&gt;split(): (Tx&amp;lt;USART&amp;gt;, Rx&amp;lt;USART&amp;gt;)&lt;/span&gt;&lt;/div&gt;&lt;div&gt;&lt;span style=&quot;background-color: transparent;&quot;&gt;+ is_idle(): bool&lt;/span&gt;&lt;/div&gt;&lt;div&gt;&lt;span style=&quot;background-color: transparent;&quot;&gt;+ is_tx_empty(): bool&lt;/span&gt;&lt;/div&gt;&lt;div&gt;&lt;span style=&quot;background-color: transparent;&quot;&gt;+ is_rx_not_empty(): bool&lt;/span&gt;&lt;/div&gt;" style="text;strokeColor=none;fillColor=none;align=left;verticalAlign=top;spacingLeft=4;spacingRight=4;overflow=hidden;rotatable=0;points=[[0,0.5],[1,0.5]];portConstraint=eastwest;whiteSpace=wrap;html=1;" vertex="1" parent="DpRpAsg6g2zffk_E9SH7-3">
          <mxGeometry y="98" width="600" height="132" as="geometry" />
        </mxCell>
        <mxCell id="DpRpAsg6g2zffk_E9SH7-7" value="Tx" style="swimlane;fontStyle=1;align=center;verticalAlign=top;childLayout=stackLayout;horizontal=1;startSize=26;horizontalStack=0;resizeParent=1;resizeParentMax=0;resizeLast=0;collapsible=1;marginBottom=0;whiteSpace=wrap;html=1;" vertex="1" parent="WIyWlLk6GJQsqaUBKTNV-1">
          <mxGeometry x="100" y="770" width="280" height="170" as="geometry" />
        </mxCell>
        <mxCell id="DpRpAsg6g2zffk_E9SH7-9" value="" style="line;strokeWidth=1;fillColor=none;align=left;verticalAlign=middle;spacingTop=-1;spacingLeft=3;spacingRight=3;rotatable=0;labelPosition=right;points=[];portConstraint=eastwest;strokeColor=inherit;" vertex="1" parent="DpRpAsg6g2zffk_E9SH7-7">
          <mxGeometry y="26" width="280" height="8" as="geometry" />
        </mxCell>
        <mxCell id="DpRpAsg6g2zffk_E9SH7-10" value="&lt;div&gt;&lt;div&gt;+&amp;nbsp;write_u16(word: u16): nb::Result&amp;lt;(), Error&amp;gt;&lt;/div&gt;&lt;/div&gt;&lt;div&gt;+&amp;nbsp;write_u8(word: u8): nb::Result&amp;lt;(), Error&amp;gt;&lt;/div&gt;&lt;div&gt;+&amp;nbsp;bwrite_all_u16(buffer: &amp;amp;[u16]): Result&amp;lt;(), Error&amp;gt;&lt;/div&gt;&lt;div&gt;+&amp;nbsp;bwrite_all_u8(buffer: &amp;amp;[u8]): Result&amp;lt;(), Error&amp;gt;&lt;/div&gt;&lt;div&gt;+&amp;nbsp;flush(): nb::Result&amp;lt;(), Error&amp;gt;&lt;/div&gt;&lt;div&gt;+ bflush(): Result&amp;lt;(), Error&amp;gt;&lt;/div&gt;&lt;div&gt;+ is_tx_empty(): bool&lt;/div&gt;&lt;div&gt;+ is_tx_complete(): bool&lt;/div&gt;&lt;div&gt;&lt;br&gt;&lt;/div&gt;&lt;div&gt;&lt;br&gt;&lt;/div&gt;&lt;div&gt;&lt;br&gt;&lt;/div&gt;" style="text;strokeColor=none;fillColor=none;align=left;verticalAlign=top;spacingLeft=4;spacingRight=4;overflow=hidden;rotatable=0;points=[[0,0.5],[1,0.5]];portConstraint=eastwest;whiteSpace=wrap;html=1;" vertex="1" parent="DpRpAsg6g2zffk_E9SH7-7">
          <mxGeometry y="34" width="280" height="136" as="geometry" />
        </mxCell>
        <mxCell id="DpRpAsg6g2zffk_E9SH7-12" value="Rx" style="swimlane;fontStyle=1;align=center;verticalAlign=top;childLayout=stackLayout;horizontal=1;startSize=26;horizontalStack=0;resizeParent=1;resizeParentMax=0;resizeLast=0;collapsible=1;marginBottom=0;whiteSpace=wrap;html=1;" vertex="1" parent="WIyWlLk6GJQsqaUBKTNV-1">
          <mxGeometry x="414" y="770" width="280" height="110" as="geometry" />
        </mxCell>
        <mxCell id="DpRpAsg6g2zffk_E9SH7-13" value="" style="line;strokeWidth=1;fillColor=none;align=left;verticalAlign=middle;spacingTop=-1;spacingLeft=3;spacingRight=3;rotatable=0;labelPosition=right;points=[];portConstraint=eastwest;strokeColor=inherit;" vertex="1" parent="DpRpAsg6g2zffk_E9SH7-12">
          <mxGeometry y="26" width="280" height="8" as="geometry" />
        </mxCell>
        <mxCell id="DpRpAsg6g2zffk_E9SH7-14" value="&lt;div&gt;&lt;div&gt;+ read_u16(): nb::Result&amp;lt;u16, Error&amp;gt;&lt;/div&gt;&lt;/div&gt;&lt;div&gt;+ read_u8(): nb::Result&amp;lt;u8, Error&amp;gt;&lt;/div&gt;&lt;div&gt;+ is_idle(): bool&lt;/div&gt;&lt;div&gt;+ is_rx_not_empty(): bool&lt;/div&gt;&lt;div&gt;&lt;br&gt;&lt;/div&gt;&lt;div&gt;&lt;br&gt;&lt;/div&gt;&lt;div&gt;&lt;br&gt;&lt;/div&gt;" style="text;strokeColor=none;fillColor=none;align=left;verticalAlign=top;spacingLeft=4;spacingRight=4;overflow=hidden;rotatable=0;points=[[0,0.5],[1,0.5]];portConstraint=eastwest;whiteSpace=wrap;html=1;" vertex="1" parent="DpRpAsg6g2zffk_E9SH7-12">
          <mxGeometry y="34" width="280" height="76" as="geometry" />
        </mxCell>
        <mxCell id="DpRpAsg6g2zffk_E9SH7-15" value="«interface»&lt;br&gt;&lt;b&gt;ErrorType&lt;/b&gt;" style="html=1;whiteSpace=wrap;" vertex="1" parent="WIyWlLk6GJQsqaUBKTNV-1">
          <mxGeometry x="317.5" y="630" width="165" height="50" as="geometry" />
        </mxCell>
        <mxCell id="DpRpAsg6g2zffk_E9SH7-17" value="«interface»&lt;br&gt;&lt;b&gt;Read&lt;/b&gt;" style="html=1;whiteSpace=wrap;" vertex="1" parent="WIyWlLk6GJQsqaUBKTNV-1">
          <mxGeometry x="529" y="610" width="165" height="50" as="geometry" />
        </mxCell>
        <mxCell id="DpRpAsg6g2zffk_E9SH7-18" value="+ read(): Result&amp;lt;byte&amp;gt;" style="html=1;whiteSpace=wrap;align=left;" vertex="1" parent="WIyWlLk6GJQsqaUBKTNV-1">
          <mxGeometry x="529" y="660" width="165" height="35" as="geometry" />
        </mxCell>
        <mxCell id="DpRpAsg6g2zffk_E9SH7-19" value="«interface»&lt;br&gt;&lt;b&gt;Write&lt;/b&gt;" style="html=1;whiteSpace=wrap;" vertex="1" parent="WIyWlLk6GJQsqaUBKTNV-1">
          <mxGeometry x="100" y="610" width="165" height="50" as="geometry" />
        </mxCell>
        <mxCell id="DpRpAsg6g2zffk_E9SH7-20" value="+ write(bytes): Result&lt;div&gt;+ flush(): Result&lt;/div&gt;" style="html=1;whiteSpace=wrap;align=left;" vertex="1" parent="WIyWlLk6GJQsqaUBKTNV-1">
          <mxGeometry x="100" y="660" width="165" height="35" as="geometry" />
        </mxCell>
        <mxCell id="DpRpAsg6g2zffk_E9SH7-21" value="" style="endArrow=block;dashed=1;endFill=0;endSize=12;html=1;rounded=0;entryX=0.5;entryY=0;entryDx=0;entryDy=0;" edge="1" parent="WIyWlLk6GJQsqaUBKTNV-1" source="DpRpAsg6g2zffk_E9SH7-6" target="DpRpAsg6g2zffk_E9SH7-19">
          <mxGeometry width="160" relative="1" as="geometry">
            <mxPoint x="330" y="560" as="sourcePoint" />
            <mxPoint x="295" y="564.5" as="targetPoint" />
          </mxGeometry>
        </mxCell>
        <mxCell id="DpRpAsg6g2zffk_E9SH7-22" value="" style="endArrow=block;dashed=1;endFill=0;endSize=12;html=1;rounded=0;" edge="1" parent="WIyWlLk6GJQsqaUBKTNV-1" source="DpRpAsg6g2zffk_E9SH7-6" target="DpRpAsg6g2zffk_E9SH7-15">
          <mxGeometry width="160" relative="1" as="geometry">
            <mxPoint x="386" y="610" as="sourcePoint" />
            <mxPoint x="441" y="570" as="targetPoint" />
          </mxGeometry>
        </mxCell>
        <mxCell id="DpRpAsg6g2zffk_E9SH7-23" value="" style="endArrow=block;dashed=1;endFill=0;endSize=12;html=1;rounded=0;" edge="1" parent="WIyWlLk6GJQsqaUBKTNV-1" source="DpRpAsg6g2zffk_E9SH7-6" target="DpRpAsg6g2zffk_E9SH7-17">
          <mxGeometry width="160" relative="1" as="geometry">
            <mxPoint x="577.5" y="605" as="sourcePoint" />
            <mxPoint x="632.5" y="565" as="targetPoint" />
          </mxGeometry>
        </mxCell>
        <mxCell id="DpRpAsg6g2zffk_E9SH7-24" value="" style="endArrow=block;dashed=1;endFill=0;endSize=12;html=1;rounded=0;" edge="1" parent="WIyWlLk6GJQsqaUBKTNV-1" source="DpRpAsg6g2zffk_E9SH7-7" target="DpRpAsg6g2zffk_E9SH7-20">
          <mxGeometry width="160" relative="1" as="geometry">
            <mxPoint x="170" y="770" as="sourcePoint" />
            <mxPoint x="225" y="730" as="targetPoint" />
          </mxGeometry>
        </mxCell>
        <mxCell id="DpRpAsg6g2zffk_E9SH7-25" value="" style="endArrow=block;dashed=1;endFill=0;endSize=12;html=1;rounded=0;" edge="1" parent="WIyWlLk6GJQsqaUBKTNV-1" source="DpRpAsg6g2zffk_E9SH7-7" target="DpRpAsg6g2zffk_E9SH7-15">
          <mxGeometry width="160" relative="1" as="geometry">
            <mxPoint x="250" y="770" as="sourcePoint" />
            <mxPoint x="305" y="730" as="targetPoint" />
          </mxGeometry>
        </mxCell>
        <mxCell id="DpRpAsg6g2zffk_E9SH7-26" value="" style="endArrow=block;dashed=1;endFill=0;endSize=12;html=1;rounded=0;" edge="1" parent="WIyWlLk6GJQsqaUBKTNV-1" source="DpRpAsg6g2zffk_E9SH7-12" target="DpRpAsg6g2zffk_E9SH7-18">
          <mxGeometry width="160" relative="1" as="geometry">
            <mxPoint x="560" y="770" as="sourcePoint" />
            <mxPoint x="615" y="730" as="targetPoint" />
          </mxGeometry>
        </mxCell>
        <mxCell id="DpRpAsg6g2zffk_E9SH7-27" value="" style="endArrow=block;dashed=1;endFill=0;endSize=12;html=1;rounded=0;" edge="1" parent="WIyWlLk6GJQsqaUBKTNV-1" source="DpRpAsg6g2zffk_E9SH7-12" target="DpRpAsg6g2zffk_E9SH7-15">
          <mxGeometry width="160" relative="1" as="geometry">
            <mxPoint x="490" y="770" as="sourcePoint" />
            <mxPoint x="545" y="730" as="targetPoint" />
          </mxGeometry>
        </mxCell>
        <mxCell id="DpRpAsg6g2zffk_E9SH7-31" value="«interface»&lt;br&gt;&lt;b&gt;Error&lt;/b&gt;" style="html=1;whiteSpace=wrap;" vertex="1" parent="WIyWlLk6GJQsqaUBKTNV-1">
          <mxGeometry x="202.5" y="980" width="165" height="50" as="geometry" />
        </mxCell>
        <mxCell id="DpRpAsg6g2zffk_E9SH7-36" value="&lt;b&gt;Error&lt;/b&gt;" style="html=1;whiteSpace=wrap;" vertex="1" parent="WIyWlLk6GJQsqaUBKTNV-1">
          <mxGeometry x="432.5" y="980" width="165" height="50" as="geometry" />
        </mxCell>
        <mxCell id="DpRpAsg6g2zffk_E9SH7-37" value="" style="endArrow=block;dashed=1;endFill=0;endSize=12;html=1;rounded=0;" edge="1" parent="WIyWlLk6GJQsqaUBKTNV-1" source="DpRpAsg6g2zffk_E9SH7-36" target="DpRpAsg6g2zffk_E9SH7-31">
          <mxGeometry width="160" relative="1" as="geometry">
            <mxPoint x="318" y="780" as="sourcePoint" />
            <mxPoint x="390" y="690" as="targetPoint" />
          </mxGeometry>
        </mxCell>
      </root>
    </mxGraphModel>
  </diagram>
</mxfile>
